# xmcd
#
# Track frame offsets:
#	150
#	11954
#	26642
#	41010
#	57110
#	69495
#	79943
#	93102
#	108019
#	118925
#	132312
#	145689
#
# Disc length: 2115 seconds
#
# Revision: 1
# Processed by: cddbd v1.5.2PL0 Copyright (c) Steve Scherf et al.
# Submitted via: EasyCDDAExtractor 12.0.1.1
#
DISCID=9e08410c
DTITLE=Lillian Askeland - Stalltips
DYEAR=1979
DGENRE=Country
TTITLE0=Kjære vind
TTITLE1=Frank
TTITLE2=Jeg ha'kke penger
TTITLE3=Du trengte meg
TTITLE4=Janne
TTITLE5=Jeg har aldri vært i Nashville
TTITLE6=Barneår
TTITLE7=Du kom for sent
TTITLE8=Tomme ord og fagre løfter
TTITLE9=Til jeg har funnet en igjen
TTITLE10=Selv den mørkeste dag har kun 24 timer
TTITLE11=La dem leke i solen
EXTD=
EXTT0=
EXTT1=
EXTT2=
EXTT3=
EXTT4=
EXTT5=
EXTT6=
EXTT7=
EXTT8=
EXTT9=
EXTT10=
EXTT11=
PLAYORDER=
